<svg width="60" height="60" fill="none" xmlns="http://www.w3.org/2000/svg"><circle cx="30" cy="30" r="30" fill="#FF5656"/><circle cx="30" cy="30" r="12.5" stroke="#fff" stroke-width="3"/><path d="M28.779 26c0 .54-.094 1.03-.28 1.47-.187.44-.44.82-.76 1.14a3.368 3.368 0 01-1.09.73c-.414.167-.844.25-1.29.25-.494 0-.947-.083-1.36-.25a3.257 3.257 0 01-1.08-.73c-.3-.32-.537-.7-.71-1.14-.167-.44-.25-.93-.25-1.47 0-.56.083-1.063.25-1.51.173-.453.41-.837.71-1.15.306-.32.666-.567 1.08-.74.413-.173.866-.26 1.36-.26.493 0 .95.087 1.37.26.42.173.78.42 1.08.74.306.313.543.697.71 1.15.173.447.26.95.26 1.51zm-2.12 0c0-.36-.034-.66-.1-.9a1.57 1.57 0 00-.28-.59.923.923 0 00-.41-.31c-.16-.067-.33-.1-.51-.1s-.35.033-.51.1a.934.934 0 00-.4.31 1.802 1.802 0 00-.26.59c-.06.24-.09.54-.09.9 0 .353.03.647.09.88.066.233.153.423.26.57.113.14.246.24.4.3.16.06.33.09.51.09s.35-.03.51-.09a.95.95 0 00.41-.3c.12-.147.213-.337.28-.57.066-.233.1-.527.1-.88zm6.82-3.09c.093-.107.203-.203.33-.29.133-.087.316-.13.55-.13h2.01L25.518 36.6a1.33 1.33 0 01-.34.29c-.134.073-.297.11-.49.11h-2.05l10.84-14.09zm3.56 10.68c0 .54-.094 1.03-.28 1.47-.187.44-.44.82-.76 1.14a3.368 3.368 0 01-1.09.73c-.414.167-.844.25-1.29.25-.494 0-.947-.083-1.36-.25a3.257 3.257 0 01-1.08-.73c-.3-.32-.537-.7-.71-1.14-.167-.44-.25-.93-.25-1.47 0-.56.083-1.063.25-1.51.173-.453.41-.837.71-1.15a3.06 3.06 0 011.08-.73c.413-.173.866-.26 1.36-.26.493 0 .95.087 1.37.26.42.167.78.41 1.08.73.306.313.543.697.71 1.15.173.447.26.95.26 1.51zm-2.12 0c0-.36-.034-.66-.1-.9a1.57 1.57 0 00-.28-.59.923.923 0 00-.41-.31c-.16-.067-.33-.1-.51-.1s-.35.033-.51.1a.934.934 0 00-.4.31 1.802 1.802 0 00-.26.59c-.06.24-.09.54-.09.9 0 .353.03.647.09.88.066.233.153.423.26.57.113.14.246.24.4.3.16.06.33.09.51.09s.35-.03.51-.09a.95.95 0 00.41-.3c.12-.147.213-.337.28-.57.066-.233.1-.527.1-.88z" fill="#fff"/></svg>