<svg width="60" height="60" fill="none" xmlns="http://www.w3.org/2000/svg"><circle cx="30" cy="30" r="30" fill="#FF5656"/><path d="M35.313 31.083a5.47 5.47 0 01-1.556 3.83A5.26 5.26 0 0130 36.5a5.26 5.26 0 01-3.756-1.587 5.47 5.47 0 01-1.556-3.83c0-1.436.56-2.814 1.556-3.83A5.261 5.261 0 0130 25.666c1.409 0 2.76.571 3.757 1.587a5.471 5.471 0 011.556 3.83z" fill="#fff"/><path d="M17.25 21.333a4.21 4.21 0 00-3.005 1.27A4.377 4.377 0 0013 25.666v13c0 1.149.448 2.251 1.245 3.064A4.209 4.209 0 0017.25 43h25.5a4.209 4.209 0 003.005-1.27A4.377 4.377 0 0047 38.668v-13c0-1.15-.448-2.252-1.245-3.065a4.21 4.21 0 00-3.005-1.269h-2.49a4.209 4.209 0 01-3.005-1.27l-1.76-1.793A4.21 4.21 0 0032.49 17h-4.98a4.209 4.209 0 00-3.005 1.27l-1.76 1.794a4.209 4.209 0 01-3.005 1.27h-2.49zm1.063 4.334c-.282 0-.552-.115-.752-.318a1.094 1.094 0 010-1.532 1.052 1.052 0 011.503 0c.2.203.311.479.311.766 0 .288-.112.563-.311.766-.2.203-.47.318-.752.318zm19.125 5.416a7.66 7.66 0 01-2.179 5.363A7.366 7.366 0 0130 38.666a7.366 7.366 0 01-5.26-2.22 7.66 7.66 0 01-2.177-5.363 7.66 7.66 0 012.178-5.362A7.366 7.366 0 0130 23.5a7.37 7.37 0 015.26 2.221 7.66 7.66 0 012.178 5.362z" fill="#fff"/></svg>