<svg width="60" height="60" fill="none" xmlns="http://www.w3.org/2000/svg"><circle cx="30" cy="30" r="30" fill="#FF5656"/><path d="M39.286 38.143H35.57V49h-3.714V38.143H27.92l-2.86 3.492 4.401 4.27-2.637 2.57-4.383-4.288a3.538 3.538 0 01-1.077-2.353 3.494 3.494 0 01.799-2.46l1.003-1.231h-2.452l3.715-7.238v-5.429a9.287 9.287 0 00-2.73 3.185 8.835 8.835 0 00-.985 4.053H17c0-3.359 1.37-6.58 3.808-8.956 2.438-2.375 5.744-3.71 9.192-3.71a9.48 9.48 0 006.574-2.642c1.727-1.701 2.712-4 2.712-6.406H43c0 2.389-.706 4.741-2.024 6.75a12.864 12.864 0 01-5.405 4.668v8.487l3.715 7.238zm-5.572-23.524a3.54 3.54 0 01-.631 2.009 3.698 3.698 0 01-1.653 1.339 3.813 3.813 0 01-2.148.199 3.753 3.753 0 01-1.9-.995 3.6 3.6 0 01-1.022-1.846 3.466 3.466 0 01.204-2.081c.279-.67.762-1.23 1.375-1.629A3.763 3.763 0 0130 11a3.7 3.7 0 012.619 1.068 3.513 3.513 0 011.095 2.551z" fill="#fff"/></svg>