<svg width="206" height="35" fill="none" xmlns="http://www.w3.org/2000/svg"><path d="M46.718 11.59v10.03h-1.19v-7.37c0-.098.002-.203.007-.315l.028-.343-3.444 6.272c-.107.21-.27.315-.49.315h-.196c-.22 0-.383-.105-.49-.315l-3.514-6.3c.028.247.042.476.042.686v7.37h-1.19V11.59h1.001c.121 0 .215.011.28.035.065.023.128.088.189.196l3.465 6.174c.056.112.11.228.161.35.056.12.107.245.154.37.047-.125.096-.25.147-.37a3.46 3.46 0 01.168-.357l3.402-6.167c.056-.108.117-.173.182-.196a.94.94 0 01.287-.035h1.001zm5.041 2.828c.518 0 .985.086 1.4.259.416.172.77.417 1.064.735.294.317.518.702.672 1.155.159.448.238.95.238 1.505 0 .56-.08 1.064-.238 1.512a3.19 3.19 0 01-.672 1.148 3.001 3.001 0 01-1.064.735 3.704 3.704 0 01-1.4.252c-.523 0-.994-.084-1.414-.252a3.001 3.001 0 01-1.064-.735c-.294-.318-.52-.7-.679-1.148a4.634 4.634 0 01-.23-1.512c0-.556.076-1.057.23-1.505.159-.453.385-.838.68-1.155a3.001 3.001 0 011.063-.735c.42-.173.892-.26 1.414-.26zm0 6.328c.7 0 1.223-.234 1.568-.7.346-.472.518-1.127.518-1.967 0-.845-.172-1.503-.518-1.974-.345-.472-.868-.707-1.568-.707-.355 0-.665.06-.93.182-.262.12-.482.296-.659.525a2.41 2.41 0 00-.392.847 4.598 4.598 0 00-.126 1.127c0 .84.173 1.495.518 1.967.35.466.88.7 1.59.7zm6.138-4.795c.224-.486.499-.864.826-1.134.326-.276.725-.413 1.197-.413.149 0 .291.016.427.049.14.032.263.084.37.154l-.09.93c-.028.117-.098.176-.21.176-.066 0-.161-.014-.287-.042a1.976 1.976 0 00-.427-.042c-.224 0-.425.032-.602.098a1.417 1.417 0 00-.47.294 2.078 2.078 0 00-.37.476 4.138 4.138 0 00-.294.644v4.48h-1.253V14.53h.714c.135 0 .228.025.28.077.05.05.086.14.105.266l.084 1.078zm8.375 1.35c0-.289-.042-.552-.126-.79a1.679 1.679 0 00-.357-.623 1.507 1.507 0 00-.567-.406 1.886 1.886 0 00-.763-.147c-.597 0-1.07.175-1.42.525-.346.345-.56.826-.645 1.442h3.878zm1.008 3.326c-.154.186-.338.35-.553.49a3.531 3.531 0 01-.693.336 4.086 4.086 0 01-.756.196 4.41 4.41 0 01-.777.07 3.68 3.68 0 01-1.358-.245 3.075 3.075 0 01-1.07-.728 3.405 3.405 0 01-.7-1.19c-.169-.472-.253-1.013-.253-1.624 0-.495.075-.957.224-1.386.154-.43.373-.8.658-1.113a2.952 2.952 0 011.043-.742c.41-.182.873-.273 1.386-.273.425 0 .817.072 1.176.217.364.14.677.345.938.616.266.266.474.597.623.994.15.392.224.84.224 1.344 0 .196-.02.326-.063.392-.042.065-.121.098-.238.098h-4.739c.014.448.075.837.182 1.169.112.33.266.609.462.833.196.219.43.385.7.497.27.107.574.16.91.16.313 0 .581-.034.805-.104a4.042 4.042 0 00.994-.47.548.548 0 01.287-.111c.103 0 .182.04.238.119l.35.455zm5.113-3.731h3.458v1.057h-3.458v-1.057zm10.142 3.017c.229.308.478.525.749.65.27.127.574.19.91.19.663 0 1.171-.236 1.526-.707.355-.472.532-1.144.532-2.016 0-.462-.042-.86-.126-1.19a2.246 2.246 0 00-.35-.812 1.366 1.366 0 00-.567-.47 1.886 1.886 0 00-.763-.146c-.406 0-.763.093-1.071.28a3.1 3.1 0 00-.84.79v3.43zm-.063-4.284a3.673 3.673 0 011.036-.89 2.66 2.66 0 011.344-.335c.41 0 .782.079 1.113.238.331.154.614.385.847.693.233.303.413.68.539 1.134.126.452.189.973.189 1.56 0 .523-.07 1.01-.21 1.464-.14.448-.343.837-.61 1.169a2.855 2.855 0 01-.965.777c-.378.186-.805.28-1.281.28-.434 0-.807-.073-1.12-.217a2.685 2.685 0 01-.82-.616v3.136h-1.252V14.53h.749c.177 0 .287.086.329.259l.112.84zm11.39 1.673c0-.29-.042-.553-.126-.791a1.676 1.676 0 00-.357-.623 1.507 1.507 0 00-.567-.406 1.886 1.886 0 00-.763-.147c-.597 0-1.071.175-1.421.525-.345.345-.56.826-.644 1.442h3.878zm1.008 3.325c-.154.186-.338.35-.553.49a3.531 3.531 0 01-.693.336 4.086 4.086 0 01-.756.196 4.41 4.41 0 01-.777.07 3.68 3.68 0 01-1.358-.245 3.075 3.075 0 01-1.071-.728 3.405 3.405 0 01-.7-1.19c-.168-.472-.252-1.013-.252-1.624 0-.495.075-.957.224-1.386.154-.43.373-.8.658-1.113a2.953 2.953 0 011.043-.742c.41-.182.873-.273 1.386-.273.425 0 .817.072 1.176.217.364.14.677.345.938.616.266.266.474.597.623.994.15.392.224.84.224 1.344 0 .196-.021.326-.063.392-.042.065-.121.098-.238.098h-4.74c.015.448.076.837.183 1.169.112.33.266.609.462.833.196.219.43.385.7.497.27.107.574.16.91.16.313 0 .58-.034.805-.104a4.033 4.033 0 00.994-.47.549.549 0 01.287-.111c.103 0 .182.04.238.119l.35.455zm6.577-4.837a.533.533 0 01-.112.119.25.25 0 01-.154.042.426.426 0 01-.231-.084 3.191 3.191 0 00-.315-.196 2.22 2.22 0 00-.455-.19 2.048 2.048 0 00-.658-.09c-.35 0-.658.063-.924.189-.266.12-.49.298-.672.532a2.508 2.508 0 00-.406.847 4.305 4.305 0 00-.133 1.113c0 .429.05.812.147 1.148.098.33.236.61.413.84.182.224.4.396.651.518.257.116.544.175.861.175.304 0 .553-.035.749-.105a2.21 2.21 0 00.483-.245c.131-.09.238-.168.322-.238a.408.408 0 01.259-.112c.103 0 .182.04.238.119l.35.455a2.483 2.483 0 01-.525.49c-.196.135-.408.25-.637.343a3.502 3.502 0 01-.707.196 4.502 4.502 0 01-.756.063c-.443 0-.856-.082-1.239-.245a2.845 2.845 0 01-.987-.707 3.381 3.381 0 01-.658-1.148 4.662 4.662 0 01-.238-1.547c0-.528.073-1.015.217-1.463.15-.448.364-.833.644-1.155a2.947 2.947 0 011.043-.763c.416-.182.892-.273 1.428-.273.5 0 .938.081 1.316.245a3.1 3.1 0 011.015.679l-.329.448zm7.645-.308h-2.723v6.139h-1.246v-6.14H102.4v-.951h6.692v.952zm3.89-1.064c.518 0 .985.086 1.4.259.415.172.77.417 1.064.735.294.317.518.702.672 1.155.159.448.238.95.238 1.505a4.5 4.5 0 01-.238 1.512 3.19 3.19 0 01-.672 1.148 3.004 3.004 0 01-1.064.735 3.703 3.703 0 01-1.4.252c-.523 0-.994-.084-1.414-.252a3.004 3.004 0 01-1.064-.735c-.294-.318-.52-.7-.679-1.148a4.634 4.634 0 01-.231-1.512c0-.556.077-1.057.231-1.505.159-.453.385-.838.679-1.155a3.004 3.004 0 011.064-.735 3.68 3.68 0 011.414-.26zm0 6.328c.7 0 1.223-.234 1.568-.7.345-.472.518-1.127.518-1.967 0-.845-.173-1.503-.518-1.974-.345-.472-.868-.707-1.568-.707-.355 0-.665.06-.931.182a1.758 1.758 0 00-.658.525 2.41 2.41 0 00-.392.847 4.598 4.598 0 00-.126 1.127c0 .84.173 1.495.518 1.967.35.466.88.7 1.589.7zm6.207-.833c.229.308.479.525.749.65.271.127.574.19.91.19.663 0 1.172-.236 1.526-.707.355-.472.532-1.144.532-2.016 0-.462-.042-.86-.126-1.19a2.241 2.241 0 00-.35-.812 1.366 1.366 0 00-.567-.47 1.885 1.885 0 00-.763-.146c-.406 0-.763.093-1.071.28a3.11 3.11 0 00-.84.79v3.43zm-.063-4.284a3.677 3.677 0 011.036-.89 2.66 2.66 0 011.344-.335c.411 0 .782.079 1.113.238.332.154.614.385.847.693.234.303.413.68.539 1.134.126.452.189.973.189 1.56 0 .523-.07 1.01-.21 1.464-.14.448-.343.837-.609 1.169a2.85 2.85 0 01-.966.777c-.378.186-.805.28-1.281.28-.434 0-.807-.073-1.12-.217a2.685 2.685 0 01-.819-.616v3.136h-1.253V14.53h.749c.178 0 .287.086.329.259l.112.84zm10.487 2.8a9.948 9.948 0 00-1.47.14c-.401.07-.73.163-.987.28-.252.116-.436.254-.553.413a.901.901 0 00-.168.532c0 .186.031.347.091.483a.962.962 0 00.245.336c.108.084.231.147.371.189.145.037.299.056.462.056.22 0 .42-.021.602-.063a2.652 2.652 0 00.973-.497c.15-.117.294-.25.434-.4v-1.47zm-4.025-2.898c.392-.378.815-.66 1.267-.847a3.91 3.91 0 011.505-.28c.397 0 .749.065 1.057.196.308.13.567.312.777.546a2.3 2.3 0 01.476.847 3.5 3.5 0 01.161 1.092v4.536h-.553a.574.574 0 01-.28-.056c-.065-.042-.116-.122-.154-.238l-.14-.672a7.29 7.29 0 01-.546.462c-.177.13-.364.242-.56.336a3.016 3.016 0 01-.63.203 3.23 3.23 0 01-.735.077 2.63 2.63 0 01-.777-.112 1.883 1.883 0 01-.637-.35 1.708 1.708 0 01-.427-.581 2.12 2.12 0 01-.154-.84c0-.28.077-.549.231-.805.154-.262.404-.493.749-.693.346-.201.796-.364 1.351-.49.556-.131 1.237-.206 2.044-.224v-.553c0-.551-.119-.966-.357-1.246-.238-.285-.585-.427-1.043-.427-.308 0-.567.04-.777.119a2.769 2.769 0 00-.539.259c-.149.093-.28.18-.392.259a.558.558 0 01-.322.112.372.372 0 01-.217-.063.675.675 0 01-.154-.168l-.224-.4zm13.049-1.001v7.09h-1.253v-3.317h-3.402v3.318h-1.253V14.53h1.253v2.828h3.402V14.53h1.253zm10.449 6.18v-5.2h-2.247a23.296 23.296 0 01-.196 1.932c-.084.56-.182 1.052-.294 1.477a6.34 6.34 0 01-.364 1.07 3.506 3.506 0 01-.413.722h3.514zm2.506-.034v3.003c0 .12-.035.214-.105.28a.338.338 0 01-.259.105h-.763V21.62h-5.964v2.086a.4.4 0 01-.084.245c-.051.074-.138.112-.259.112h-.784V20.71h.231c.163 0 .324-.028.483-.084.163-.056.32-.161.469-.315.149-.16.289-.38.42-.665.135-.285.257-.656.364-1.113a15.73 15.73 0 00.28-1.666c.079-.658.142-1.438.189-2.338h4.487v6.146h1.295zm7.478.945h-1.246V15.51h-2.24c-.056.9-.14 1.68-.252 2.338a10.836 10.836 0 01-.406 1.673c-.154.457-.329.83-.525 1.12a2.645 2.645 0 01-.609.665c-.21.158-.429.266-.658.322a2.762 2.762 0 01-.672.084c-.396 0-.595-.063-.595-.19v-.79h.364c.159 0 .32-.028.483-.084.164-.056.322-.164.476-.322.159-.16.311-.38.455-.665a5.63 5.63 0 00.392-1.12c.122-.462.224-1.02.308-1.673.089-.658.157-1.438.203-2.338h4.522v7.09zm5.705-3.78V15.37h-1.19c-.266 0-.49.04-.672.119a1.219 1.219 0 00-.441.294c-.108.116-.185.25-.231.399-.047.144-.07.289-.07.434 0 .382.14.683.42.903.28.214.662.322 1.148.322h1.036zm1.19-3.311v7.09h-1.19v-2.988h-.546a1.31 1.31 0 00-.329.035.796.796 0 00-.224.084.583.583 0 00-.161.147 2.49 2.49 0 00-.147.196l-1.554 2.093a.827.827 0 01-.294.329c-.112.07-.278.105-.497.105h-.868l2.058-2.674c.168-.28.389-.467.665-.56a2.917 2.917 0 01-.91-.252 2.154 2.154 0 01-.609-.427 1.588 1.588 0 01-.336-.553 1.842 1.842 0 01-.105-.61c0-.242.046-.485.14-.727.098-.243.252-.458.462-.644.21-.192.48-.346.812-.462.336-.122.742-.182 1.218-.182h2.415zm10.451 6.18v-5.2h-2.247a23.296 23.296 0 01-.196 1.932c-.084.56-.182 1.052-.294 1.477a6.34 6.34 0 01-.364 1.07 3.506 3.506 0 01-.413.722h3.514zm2.506-.034v3.003c0 .12-.035.214-.105.28a.338.338 0 01-.259.105h-.763V21.62h-5.964v2.086a.4.4 0 01-.084.245c-.051.074-.138.112-.259.112h-.784V20.71h.231c.163 0 .324-.028.483-.084.163-.056.32-.161.469-.315.149-.16.289-.38.42-.665.135-.285.257-.656.364-1.113a15.73 15.73 0 00.28-1.666c.079-.658.142-1.438.189-2.338h4.487v6.146h1.295zm7.052-6.146l-3.955 9.184a.633.633 0 01-.161.224c-.061.056-.156.084-.287.084h-.924l1.295-2.814-2.926-6.678h1.078c.107 0 .191.028.252.084.065.05.11.11.133.175l1.897 4.466c.075.196.138.4.189.616.065-.22.135-.427.21-.623l1.841-4.46a.387.387 0 01.14-.181.382.382 0 01.231-.077h.987zm10.642 0v7.09h-9.541v-7.09h1.253v6.146h2.891V14.53h1.253v6.146h2.891V14.53h1.253zm8.054 0v7.09h-1.246v-4.815c0-.094.004-.194.014-.301.009-.108.021-.215.035-.322-.042.093-.084.18-.126.259a2.117 2.117 0 01-.133.217l-3.423 4.655a1.232 1.232 0 01-.196.217.374.374 0 01-.252.098h-.756v-7.091h1.253v4.816c0 .088-.005.186-.014.294-.01.102-.021.207-.035.315.042-.09.084-.17.126-.245.042-.08.084-.152.126-.217l3.423-4.655a1 1 0 01.196-.21.382.382 0 01.259-.105h.749zM11.25.002a1.25 1.25 0 011.23 1.025l.02.225v7.5a6.248 6.248 0 01-5 6.123v18.873a1.25 1.25 0 01-2.48.225L5 33.748V14.875A6.252 6.252 0 01.015 9.18L0 8.75V1.252a1.25 1.25 0 012.48-.225l.02.225v7.5A3.75 3.75 0 005 12.287V1.252a1.25 1.25 0 012.48-.225l.02.225v11.034a3.753 3.753 0 002.482-3.162L10 8.75V1.252a1.25 1.25 0 011.25-1.25zm12.5 0a1.25 1.25 0 011.23 1.025l.02.225v32.496a1.25 1.25 0 01-2.48.225l-.02-.225V20h-3.75a1.25 1.25 0 01-1.23-1.025l-.02-.225V6.25A6.249 6.249 0 0123.75.002z" fill="#fff"/></svg>